<svg xmlns="http://www.w3.org/2000/svg" xmlns:xlink="http://www.w3.org/1999/xlink" fill="none" version="1.1" width="252.48193359375" height="252.481689453125" viewBox="0 0 252.48193359375 252.481689453125"><g><g transform="matrix(0.7071067690849304,-0.7071067690849304,0.7071067690849304,0.7071067690849304,-84.80354940410689,45.671025449151784)"><g><path d="M21.901055390625,220.72980443359376Q23.325375390625,227.68644443359375,26.091075390625,234.22539443359375Q31.555475390625,247.14469443359374,41.524975390625,257.11419443359375Q62.613275390625,278.20249443359376,92.436675390625,278.20249443359376Q122.260275390625,278.20249443359376,143.348275390625,257.11419443359375Q153.318275390625,247.14469443359374,158.782275390625,234.22539443359375Q161.549275390625,227.68295443359375,162.973275390625,220.72251443359374Q163.012275390625,220.53388443359376,163.059275390625,220.34707443359375Q163.105275390625,220.16027443359374,163.160275390625,219.97562443359374Q163.214275390625,219.79098443359376,163.277275390625,219.60885443359376Q163.339275390625,219.42671443359376,163.409275390625,219.24741443359375Q163.480275390625,219.06810443359376,163.557275390625,218.89197443359376Q163.635275390625,218.71583443359376,163.720275390625,218.54318443359375Q163.806275390625,218.37053443359375,163.898275390625,218.20168443359375Q163.991275390625,218.03283443359376,164.090275390625,217.86810443359374Q164.190275390625,217.70336443359375,164.297275390625,217.54304443359376Q164.403275390625,217.38271443359375,164.517275390625,217.22710443359375Q164.630275390625,217.07148443359375,164.750275390625,216.92085443359375Q164.870275390625,216.77023443359374,164.996275390625,216.62487443359376Q165.122275390625,216.47951443359375,165.255275390625,216.33968443359376Q165.387275390625,216.19986443359375,165.525275390625,216.06582443359375Q165.663275390625,215.93178443359375,165.807275390625,215.80378443359376Q165.951275390625,215.67577443359374,166.100275390625,215.55404443359376Q166.249275390625,215.43230443359374,166.404275390625,215.31706443359374Q166.558275390625,215.20181443359374,166.717275390625,215.09327443359376Q166.876275390625,214.98473443359376,167.040275390625,214.88308443359375Q167.203275390625,214.78144443359375,167.371275390625,214.68688443359375Q167.538275390625,214.59233443359375,167.710275390625,214.50503443359375Q167.882275390625,214.41773443359375,168.057275390625,214.33786443359375Q168.232275390625,214.25798443359375,168.411275390625,214.18567443359376Q168.589275390625,214.11335443359374,168.770275390625,214.04874443359375Q168.952275390625,213.98412443359376,169.136275390625,213.92732443359375Q169.320275390625,213.87052443359374,169.506275390625,213.82164443359375Q169.692275390625,213.77276443359375,169.880275390625,213.73189443359374Q170.068275390625,213.69102443359375,170.258275390625,213.65824443359375Q170.448275390625,213.62545443359375,170.639275390625,213.60081443359374Q170.830275390625,213.57617443359374,171.022275390625,213.55971443359374Q171.214275390625,213.54326443359375,171.406275390625,213.53502443359375Q171.598275390625,213.52679443359375,171.791275390625,213.52679443359375Q172.012275390625,213.52679443359375,172.232275390625,213.53763443359375Q172.453275390625,213.54847443359375,172.673275390625,213.57013443359375Q172.893275390625,213.59178443359374,173.111275390625,213.62420443359375Q173.330275390625,213.65662443359375,173.547275390625,213.69972443359376Q173.763275390625,213.74283443359374,173.978275390625,213.79651443359376Q174.192275390625,213.85019443359374,174.403275390625,213.91433443359375Q174.615275390625,213.97846443359376,174.823275390625,214.05289443359374Q175.031275390625,214.12733443359375,175.235275390625,214.21188443359375Q175.439275390625,214.29643443359376,175.639275390625,214.39089443359376Q175.838275390625,214.48535443359376,176.033275390625,214.58950443359376Q176.228275390625,214.69365443359374,176.418275390625,214.80723443359375Q176.607275390625,214.92082443359374,176.791275390625,215.04357443359376Q176.975275390625,215.16631443359375,177.152275390625,215.29792443359375Q177.329275390625,215.42954443359375,177.500275390625,215.56970443359376Q177.671275390625,215.70986443359374,177.835275390625,215.85823443359374Q177.998275390625,216.00660443359374,178.155275390625,216.16283443359376Q178.311275390625,216.31906443359375,178.459275390625,216.48276443359376Q178.608275390625,216.64646443359376,178.748275390625,216.81725443359375Q178.888275390625,216.98804443359376,179.020275390625,217.16550443359375Q179.151275390625,217.34296443359375,179.274275390625,217.52666443359374Q179.397275390625,217.71036443359375,179.510275390625,217.89987443359374Q179.624275390625,218.08937443359375,179.728275390625,218.28422443359375Q179.832275390625,218.47907443359375,179.927275390625,218.67879443359374Q180.021275390625,218.87852443359375,180.106275390625,219.08264443359374Q180.190275390625,219.28676443359376,180.265275390625,219.49478443359374Q180.339275390625,219.70280443359374,180.403275390625,219.91423443359375Q180.467275390625,220.12565443359375,180.521275390625,220.33997443359374Q180.575275390625,220.55429443359375,180.618275390625,220.77098443359375Q180.661275390625,220.98767443359375,180.693275390625,221.20622443359375Q180.726275390625,221.42476443359374,180.747275390625,221.64464043359374Q180.769275390625,221.86451343359374,180.780275390625,222.08518543359375Q180.791275390625,222.30585643359376,180.791275390625,222.52679443359375Q180.791275390625,223.43818643359376,180.608275390625,224.33107443359376Q178.825275390625,233.04579443359376,175.360275390625,241.23729443359375Q168.528275390625,257.39009443359373,156.076275390625,269.84209443359373Q143.624275390625,282.2940944335937,127.471275390625,289.1260944335937Q110.741175390625,296.20249443359376,92.436675390625,296.20249443359376Q74.13217539062501,296.20249443359376,57.401775390625,289.1260944335937Q41.249075390624995,282.2940944335937,28.797075390625,269.84209443359373Q16.345045390625,257.39009443359373,9.512985390625,241.23729443359375Q6.048285390625,233.04579443359376,4.264985390625,224.33107443359376Q4.082275390625,223.43818543359376,4.082275390625,222.52679443359375Q4.082275390625,222.30585643359376,4.093115390625,222.08518543359375Q4.103955390625,221.86451343359374,4.125615390625001,221.64464043359374Q4.147265390625,221.42476443359374,4.179685390625,221.20622443359375Q4.212105390625,220.98767443359375,4.255205390624999,220.77098443359375Q4.298315390625,220.55429443359375,4.3519953906249995,220.33997443359374Q4.4056753906249995,220.12565443359375,4.4698153906249996,219.91423443359375Q4.533945390625,219.70280443359374,4.608375390625,219.49478443359374Q4.6828153906250005,219.28676443359376,4.767365390625001,219.08264443359374Q4.851915390625001,218.87852443359375,4.9463753906250005,218.67879443359374Q5.040835390625,218.47907443359375,5.144985390625,218.28422443359375Q5.249135390625,218.08937443359375,5.362715390625,217.89987443359374Q5.476305390625,217.71036443359375,5.599055390625,217.52666443359374Q5.721795390625,217.34296443359375,5.853405390625,217.16550443359375Q5.985025390625,216.98804443359376,6.125185390625,216.81725443359375Q6.265345390625,216.64646443359376,6.413715390625,216.48276443359376Q6.562085390625,216.31906443359375,6.718315390625,216.16283443359376Q6.874545390625,216.00660443359374,7.038245390625,215.85823443359374Q7.201945390625,215.70986443359374,7.372735390625,215.56970443359376Q7.543525390625,215.42954443359375,7.720985390625,215.29792443359375Q7.898445390625,215.16631443359375,8.082145390625,215.04357443359376Q8.265845390625,214.92082443359374,8.455355390625,214.80723443359375Q8.644855390625,214.69365443359374,8.839705390625,214.58950443359376Q9.034555390625,214.48535443359376,9.234275390625001,214.39089443359376Q9.434005390625,214.29643443359376,9.638125390625,214.21188443359375Q9.842245390625,214.12733443359375,10.050265390625,214.05289443359374Q10.258285390625,213.97846443359376,10.469715390625,213.91433443359375Q10.681135390625,213.85019443359374,10.895455390625,213.79651443359376Q11.109775390625,213.74283443359374,11.326465390625,213.69972443359376Q11.543155390625,213.65662443359375,11.761705390625,213.62420443359375Q11.980245390625,213.59178443359374,12.200121390625,213.57013443359375Q12.419994390625,213.54847443359375,12.640666390625,213.53763443359375Q12.861337390625,213.52679443359375,13.082275390625,213.52679443359375Q13.274813390625,213.52679443359375,13.467176390625,213.53502443359375Q13.659538390625,213.54326443359375,13.851372390625,213.55971443359374Q14.043206390625,213.57617443359374,14.234165390625,213.60081443359374Q14.425115390625,213.62545443359375,14.614845390625,213.65824443359375Q14.804565390625001,213.69102443359375,14.992715390625,213.73189443359374Q15.180865390625,213.77276443359375,15.367105390625,213.82164443359375Q15.553335390625,213.87052443359374,15.737305390625,213.92732443359375Q15.921275390625,213.98412443359376,16.102645390625,214.04874443359375Q16.284015390625,214.11335443359374,16.462455390625,214.18567443359376Q16.640905390625,214.25798443359375,16.816085390625,214.33786443359375Q16.991275390625,214.41773443359375,17.162885390625,214.50503443359375Q17.334495390625,214.59233443359375,17.502215390625,214.68688443359375Q17.669935390625,214.78144443359375,17.833455390624998,214.88308443359375Q17.996985390625,214.98473443359376,18.156005390625,215.09327443359376Q18.315035390625,215.20181443359374,18.469275390625,215.31706443359374Q18.623515390625002,215.43230443359374,18.772685390625,215.55404443359376Q18.921855390624998,215.67577443359374,19.065675390625,215.80378443359376Q19.209505390625,215.93178443359375,19.347725390625,216.06582443359375Q19.485945390624998,216.19986443359375,19.618305390625,216.33968443359376Q19.750665390625,216.47951443359375,19.876935390625,216.62487443359376Q20.003195390625,216.77023443359374,20.123115390625,216.92085443359375Q20.243045390625,217.07148443359375,20.356425390625,217.22710443359375Q20.469805390624998,217.38271443359375,20.576425390625,217.54304443359376Q20.683035390625,217.70336443359375,20.782705390625,217.86810443359374Q20.882365390625,218.03283443359376,20.974895390625,218.20168443359375Q21.067425390625,218.37053443359375,21.152645390625,218.54318443359375Q21.237865390625,218.71583443359376,21.315625390625,218.89197443359376Q21.393385390625,219.06811443359376,21.463545390625,219.24741443359375Q21.533705390625002,219.42671443359376,21.596125390624998,219.60885443359376Q21.658545390625,219.79099443359374,21.713125390625002,219.97563443359374Q21.767705390625,220.16027443359374,21.814335390625,220.34707443359375Q21.860965390624997,220.53388443359376,21.899565390625,220.72251443359374Q21.900305390625,220.72616443359374,21.901055390625,220.72980443359376Z" fill-rule="evenodd" fill="#4071F1" fill-opacity="1"/></g><g><path d="M3.91083734375,188.07335361328126L3.91073734375,188.07385361328124Q3.72802734375,188.96675361328124,3.72802734375,189.87815361328126Q3.72802734375,190.09905361328126,3.73886734375,190.31975361328125Q3.74970734375,190.54045361328124,3.7713673437500006,190.76025361328124Q3.79301734375,190.98015361328123,3.82543734375,191.19875361328127Q3.85785734375,191.41725361328125,3.900957343749999,191.63395361328125Q3.9440673437499996,191.85065361328125,3.9977473437499995,192.06495361328126Q4.0514273437499995,192.27925361328124,4.1155673437499996,192.49065361328127Q4.17969734375,192.70205361328124,4.25412734375,192.91015361328124Q4.3285673437500005,193.11815361328127,4.413117343750001,193.32225361328125Q4.497667343750001,193.52635361328123,4.5921273437500005,193.72615361328127Q4.68658734375,193.92585361328125,4.79073734375,194.12065361328126Q4.89488734375,194.31555361328125,5.00846734375,194.50505361328123Q5.12205734375,194.69455361328124,5.24480734375,194.87825361328123Q5.36754734375,195.06195361328125,5.49915734375,195.23945361328126Q5.63077734375,195.41685361328126,5.77093734375,195.58765361328125Q5.91109734375,195.75845361328123,6.05946734375,195.92215361328124Q6.20783734375,196.08585361328124,6.36406734375,196.24205361328126Q6.52029734375,196.39835361328124,6.68399734375,196.54665361328125Q6.84769734375,196.69505361328123,7.01848734375,196.83525361328125Q7.18927734375,196.97535361328124,7.36673734375,197.10695361328123Q7.54419734375,197.23855361328125,7.72789734375,197.36135361328127Q7.91159734375,197.48405361328125,8.10110734375,197.59765361328124Q8.29060734375,197.71125361328126,8.48545734375,197.81545361328125Q8.68030734375,197.91955361328127,8.880027343750001,198.01405361328125Q9.07975734375,198.10845361328126,9.28387734375,198.19305361328125Q9.48799734375,198.27755361328127,9.69601734375,198.35205361328127Q9.90403734375,198.42645361328124,10.11546734375,198.49055361328124Q10.32688734375,198.55475361328126,10.54120734375,198.60845361328126Q10.75552734375,198.66205361328124,10.97221734375,198.70515361328125Q11.18890734375,198.74825361328124,11.40745734375,198.78075361328126Q11.62599734375,198.81315361328126,11.84587334375,198.83475361328124Q12.06574634375,198.85645361328125,12.28641834375,198.86725361328126Q12.50708934375,198.87815361328126,12.72802734375,198.87815361328126Q12.92056534375,198.87815361328126,13.11292834375,198.86985361328124Q13.30529034375,198.86165361328125,13.49712434375,198.84525361328124Q13.68895834375,198.82875361328126,13.87991734375,198.80415361328124Q14.07086734375,198.77945361328125,14.26059734375,198.74665361328124Q14.450317343750001,198.71385361328123,14.63846734375,198.67305361328124Q14.82662734375,198.63215361328125,15.01285734375,198.58325361328124Q15.19908734375,198.53435361328127,15.38305734375,198.47755361328126Q15.56702734375,198.42075361328125,15.74839734375,198.35615361328126Q15.929767343750001,198.29155361328125,16.10820734375,198.21925361328124Q16.28665734375,198.14695361328126,16.46183734375,198.06705361328125Q16.63702734375,197.98715361328124,16.80863734375,197.89985361328127Q16.98024734375,197.81255361328124,17.14796734375,197.71805361328126Q17.31568734375,197.62345361328124,17.47921734375,197.52185361328125Q17.64273734375,197.42015361328123,17.80176734375,197.31165361328124Q17.96078734375,197.20305361328127,18.11502734375,197.08785361328125Q18.269267343750002,196.97265361328124,18.41843734375,196.85085361328123Q18.567607343749998,196.72915361328126,18.71143734375,196.60115361328127Q18.85525734375,196.47315361328126,18.99347734375,196.33905361328124Q19.131697343749998,196.20505361328125,19.26405734375,196.06525361328124Q19.39642734375,195.92535361328123,19.52268734375,195.78005361328127Q19.64894734375,195.63465361328124,19.76886734375,195.48405361328125Q19.88879734375,195.33345361328125,20.00217734375,195.17785361328123Q20.115557343749998,195.02215361328126,20.22217734375,194.86185361328126Q20.32878734375,194.70155361328125,20.42845734375,194.53685361328127Q20.52811734375,194.37205361328125,20.62064734375,194.20325361328125Q20.71317734375,194.03435361328127,20.79839734375,193.86175361328125Q20.88361734375,193.68905361328126,20.96137734375,193.51295361328124Q21.03913734375,193.33685361328125,21.10929734375,193.15755361328127Q21.179457343750002,192.97825361328125,21.241877343749998,192.79605361328123Q21.30429734375,192.61395361328124,21.358877343750002,192.42925361328125Q21.41345734375,192.24465361328123,21.46008734375,192.05785361328125Q21.506717343749997,191.87105361328125,21.54531734375,191.68235361328124Q21.54630734375,191.67755361328125,21.54730734375,191.67265361328126Q21.547727343749997,191.67065361328125,21.54814734375,191.66855361328123Q22.97242734375,184.71545361328126,25.73682734375,178.17955361328126Q31.20122734375,165.26025361328124,41.17072734375,155.29075361328125Q62.25902734375,134.20245361328125,92.08242734375,134.20245361328125Q121.90602734375,134.20245361328125,142.99402734375,155.29075361328125Q152.96402734375,165.26025361328124,158.42802734375,178.17955361328126Q161.19502734375,184.72195361328124,162.61902734375,191.68245361328127Q162.65802734375,191.87105361328125,162.70502734375,192.05785361328125Q162.75102734375,192.24465361328123,162.80602734375,192.42925361328125Q162.86002734375,192.61395361328124,162.92302734375,192.79605361328123Q162.98502734375,192.97825361328125,163.05502734375,193.15755361328127Q163.12602734375,193.33685361328125,163.20302734375,193.51295361328124Q163.28102734375,193.68905361328126,163.36602734375,193.86175361328125Q163.45202734375,194.03435361328127,163.54402734375,194.20325361328125Q163.63702734375,194.37205361328125,163.73602734375,194.53685361328127Q163.83602734375,194.70155361328125,163.94302734375,194.86185361328126Q164.04902734375,195.02215361328126,164.16302734375,195.17775361328125Q164.27602734375,195.33345361328125,164.39602734375,195.48405361328125Q164.51602734375,195.63465361328124,164.64202734375,195.78005361328127Q164.76802734375,195.92535361328123,164.90102734375,196.06525361328124Q165.03302734375,196.20505361328125,165.17102734375,196.33905361328124Q165.30902734375,196.47315361328126,165.45302734375,196.60115361328127Q165.59702734375,196.72915361328126,165.74602734375,196.85085361328123Q165.89502734375,196.97265361328124,166.05002734375,197.08785361328125Q166.20402734375,197.20305361328127,166.36302734375,197.31165361328124Q166.52202734375,197.42015361328123,166.68602734375,197.52185361328125Q166.84902734375,197.62345361328124,167.01702734375,197.71805361328126Q167.18402734375,197.81255361328124,167.35602734375,197.89985361328127Q167.52802734375,197.98715361328124,167.70302734375,198.06705361328125Q167.87802734375,198.14695361328126,168.05702734375,198.21925361328124Q168.23502734375,198.29155361328125,168.41602734375,198.35615361328126Q168.59802734375,198.42075361328125,168.78202734375,198.47755361328126Q168.96602734375,198.53435361328127,169.15202734375,198.58325361328124Q169.33802734375,198.63215361328125,169.52602734375,198.67305361328124Q169.71402734375,198.71385361328123,169.90402734375,198.74665361328124Q170.09402734375,198.77945361328125,170.28502734375,198.80415361328124Q170.47602734375,198.82875361328126,170.66802734375,198.84525361328124Q170.86002734375,198.86165361328125,171.05202734375,198.86985361328124Q171.24402734375,198.87815361328126,171.43702734375,198.87815361328126Q171.65802734375,198.87815361328126,171.87802734375,198.86725361328126Q172.09902734375,198.85645361328125,172.31902734375,198.83475361328124Q172.53902734375,198.81315361328126,172.75702734375,198.78075361328126Q172.97602734375,198.74825361328124,173.19302734375,198.70515361328125Q173.40902734375,198.66205361328124,173.62402734375,198.60835361328125Q173.83802734375,198.55475361328126,174.04902734375,198.49055361328124Q174.26102734375,198.42645361328124,174.46902734375,198.35205361328127Q174.67702734375,198.27755361328127,174.88102734375,198.19305361328125Q175.08502734375,198.10845361328126,175.28502734375,198.01405361328125Q175.48402734375,197.91955361328127,175.67902734375,197.81545361328125Q175.87402734375,197.71125361328126,176.06402734375,197.59765361328124Q176.25302734375,197.48405361328125,176.43702734375,197.36135361328127Q176.62102734375,197.23855361328125,176.79802734375,197.10695361328123Q176.97502734375,196.97535361328124,177.14602734375,196.83525361328125Q177.31702734375,196.69505361328123,177.48102734375,196.54665361328125Q177.64402734375,196.39835361328124,177.80102734375,196.24205361328126Q177.95702734375,196.08585361328124,178.10502734375,195.92215361328124Q178.25402734375,195.75845361328123,178.39402734375,195.58765361328125Q178.53402734375,195.41685361328126,178.66602734375,195.23935361328125Q178.79702734375,195.06195361328125,178.92002734375,194.87825361328123Q179.04302734375,194.69455361328124,179.15602734375,194.50505361328123Q179.27002734375,194.31555361328125,179.37402734375,194.12065361328126Q179.47802734375,193.92585361328125,179.57302734375,193.72615361328127Q179.66702734375,193.52635361328123,179.75202734375,193.32225361328125Q179.83602734375,193.11815361328127,179.91102734375,192.91015361328124Q179.98502734375,192.70205361328124,180.04902734375,192.49065361328127Q180.11302734375,192.27925361328124,180.16702734375,192.06495361328126Q180.22102734375,191.85065361328125,180.26402734375,191.63395361328125Q180.30702734375,191.41725361328125,180.33902734375,191.19875361328127Q180.37202734375,190.98015361328123,180.39302734375,190.76025361328124Q180.41502734375,190.54045361328124,180.42602734375,190.31975361328125Q180.43702734375,190.09905361328126,180.43702734375,189.87815361328126Q180.43702734375,188.96675361328124,180.25402734375,188.07385361328124Q178.47102734375,179.35915361328125,175.00602734375,171.16765361328126Q168.17402734375,155.01485361328125,155.72202734375,142.56285361328125Q143.27002734375,130.11084361328125,127.11702734375,123.27879361328125Q110.38682734375,116.20245361328125,92.08242734375,116.20245361328125Q73.77792734375001,116.20245361328125,57.04752734375,123.27879361328125Q40.894827343749995,130.11084361328125,28.44282734375,142.56285361328125Q15.99079734375,155.01485361328125,9.15873734375,171.16765361328126Q5.69477734375,179.35735361328125,3.9115073437499994,188.07005361328126Q3.91116734375,188.07175361328126,3.91083734375,188.07335361328126Z" fill-rule="evenodd" fill="#0DC4D1" fill-opacity="1"/></g></g><g transform="matrix(0.7071067690849304,-0.7071067690849304,0.7071067690849304,0.7071067690849304,-49.741906216033385,81.73308933008957)"><ellipse cx="92.78961181640625" cy="119.91033935546875" rx="19" ry="19" fill="#0DC4D1" fill-opacity="1"/></g><g transform="matrix(0.7071067690849304,-0.7071067690849304,0.7071067690849304,0.7071067690849304,-100.6331418274167,167.92399573112561)"><path d="M152.3856201171875,205.43695068359375L189.8856201171875,248.43695068359375L227.3856201171875,205.43695068359375L152.3856201171875,205.43695068359375Z" fill="#4071F1" fill-opacity="1"/></g><g transform="matrix(0.7071067690849304,-0.7071067690849304,0.7071067690849304,0.7071067690849304,-76.19337041645122,131.51172536275408)"><g><rect x="124.69253540039062" y="157.72940063476562" width="44" height="35" rx="12" fill="#4071F1" fill-opacity="1"/></g><g><rect x="120.65200805664062" y="171.72952270507812" width="3" height="7.000000953674316" rx="1.5" fill="#4071F1" fill-opacity="1"/></g><g><rect x="169.65200805664062" y="171.72952270507812" width="3" height="7.000000953674316" rx="1.5" fill="#4071F1" fill-opacity="1"/></g><g><ellipse cx="146.69253540039062" cy="175.41555786132812" rx="3" ry="3" fill="#EFEFEF" fill-opacity="1"/></g></g></g></svg>